<?xml version="1.0" encoding="UTF-8" standalone="no"?>
<svg
   xmlns:dc="http://purl.org/dc/elements/1.1/"
   xmlns:cc="http://creativecommons.org/ns#"
   xmlns:rdf="http://www.w3.org/1999/02/22-rdf-syntax-ns#"
   xmlns:svg="http://www.w3.org/2000/svg"
   xmlns="http://www.w3.org/2000/svg"
   version="1.1"
   id="svg2"
   viewBox="0 0 47.333 58.001324"
   height="16.369263mm"
   width="13.358424mm">
  <defs
     id="defs4" />
  <metadata
     id="metadata7">
    <rdf:RDF>
      <cc:Work
         rdf:about="">
        <dc:format>image/svg+xml</dc:format>
        <dc:type
           rdf:resource="http://purl.org/dc/dcmitype/StillImage" />
        <dc:title></dc:title>
      </cc:Work>
    </rdf:RDF>
  </metadata>
  <g
     transform="translate(-732.01289,-464.91052)"
     id="layer1">
    <path
       style="fill:#ffffff"
       d="m 777.04489,473.47032 c -0.638,-3.1946 -2.683,-4.4725 -5.75,-5.7504 -3.023,-1.2599 -10.269,-2.7669 -15.616,-2.8094 -5.346,0.042 -12.592,1.5495 -15.615,2.8094 -3.067,1.2779 -5.112,2.5558 -5.751,5.7504 l -2.3,17.7108 0,24.4041 3.962,0 0,3.8269 c 0,4.6663 6.828,4.6663 6.828,0 l 0,-3.8269 12.606,0 0.04,0 13.107,0 0,3.8269 c 0,4.6663 6.828,4.6663 6.828,0 l 0,-3.8269 3.962,0 0,-24.4042 -2.3,-17.7107 z m -31.103,-4.0893 9.507,0 9.967,0 c 1.917,0 1.917,2.8752 0,2.8752 l -9.991,0 -9.483,0 c -1.917,2e-4 -1.917,-2.8752 0,-2.8752 z m -6.551,38.5538 c -1.808,0 -3.275,-1.4668 -3.275,-3.2757 0,-1.8089 1.467,-3.2758 3.275,-3.2758 1.809,0 3.276,1.4669 3.276,3.2758 0,1.8089 -1.467,3.2757 -3.276,3.2757 z m 16.058,-14.8873 -17.375,0 c -1.7,0 -2.057,-1.2222 -1.89,-2.4534 l 1.791,-12.8454 c 0.245,-1.5607 0.774,-2.5895 2.799,-2.5895 l 14.652,0 15.158,0 c 2.025,0 2.555,1.0288 2.8,2.5895 l 1.791,12.8454 c 0.166,1.2312 -0.19,2.4534 -1.891,2.4534 l -17.835,0 z m 16.519,14.8873 c -1.81,0 -3.277,-1.4668 -3.277,-3.2757 0,-1.8089 1.467,-3.2758 3.277,-3.2758 1.808,0 3.274,1.4669 3.274,3.2758 0,1.8089 -1.466,3.2757 -3.274,3.2757 z"
       id="path15005" />
  </g>
</svg>
