<?xml version="1.0" encoding="UTF-8" standalone="no"?>
<svg
   xmlns:dc="http://purl.org/dc/elements/1.1/"
   xmlns:cc="http://creativecommons.org/ns#"
   xmlns:rdf="http://www.w3.org/1999/02/22-rdf-syntax-ns#"
   xmlns:svg="http://www.w3.org/2000/svg"
   xmlns="http://www.w3.org/2000/svg"
   version="1.1"
   id="svg2"
   viewBox="0 0 48.904002 40.753698"
   height="11.501599mm"
   width="13.801796mm">
  <defs
     id="defs4" />
  <metadata
     id="metadata7">
    <rdf:RDF>
      <cc:Work
         rdf:about="">
        <dc:format>image/svg+xml</dc:format>
        <dc:type
           rdf:resource="http://purl.org/dc/dcmitype/StillImage" />
        <dc:title></dc:title>
      </cc:Work>
    </rdf:RDF>
  </metadata>
  <g
     transform="translate(-713.79228,-473.05954)"
     id="layer1">
    <path
       id="path15346"
       d="m 758.62128,506.68144 c 2.251,0 4.075,-1.8243 4.075,-4.0755 l 0,-25.4709 c 0,-2.2517 -1.824,-4.0755 -4.075,-4.0755 l -22.415,0 c -2.251,0 -4.075,1.8238 -4.075,4.0755 l 0,4.0753 -6.194,0 c -1.365,0 -2.578,0.5404 -3.456,1.4058 l -5.153,5.1757 c -0.928,0.9173 -1.498,2.2008 -1.498,3.6069 l 0,10.2389 c -1.162,0.2348 -2.038,1.2637 -2.038,2.4962 0,1.4058 1.141,2.5476 2.548,2.5476 l 3.585,0 c 0.255,3.9837 3.575,7.1318 7.621,7.1318 4.046,0 7.366,-3.148 7.622,-7.1318 l 7.161,0 c 0.265,3.9837 3.586,7.1318 7.631,7.1318 4.045,0 7.367,-3.148 7.621,-7.1318 l 1.04,0 z m -28.527,-0.5096 c 0,1.4057 -1.142,2.5472 -2.548,2.5472 -1.406,0 -2.547,-1.1415 -2.547,-2.5472 0,-1.4059 1.141,-2.5474 2.547,-2.5474 1.406,0 2.548,1.1415 2.548,2.5474 z m 22.414,0 c 0,1.4057 -1.142,2.5472 -2.548,2.5472 -1.406,0 -2.546,-1.1415 -2.546,-2.5472 0,-1.4059 1.14,-2.5474 2.546,-2.5474 1.406,0 2.548,1.1415 2.548,2.5474 z m -31.584,-11.7166 0,-2.5769 c 0,-1.0189 0.407,-1.4984 1.172,-2.2625 l 2.19,-2.1909 c 0.693,-0.6925 1.222,-1.1205 2.221,-1.1205 l 5.623,0 0,8.1508 -11.206,0 z"
       style="clip-rule:evenodd;fill:#ffffff;fill-rule:evenodd" />
  </g>
</svg>
