<?xml version="1.0" encoding="UTF-8" standalone="no"?>
<svg
   xmlns:dc="http://purl.org/dc/elements/1.1/"
   xmlns:cc="http://creativecommons.org/ns#"
   xmlns:rdf="http://www.w3.org/1999/02/22-rdf-syntax-ns#"
   xmlns:svg="http://www.w3.org/2000/svg"
   xmlns="http://www.w3.org/2000/svg"
   version="1.1"
   id="svg2"
   viewBox="0 0 33.862001 29.347699"
   height="8.2825727mm"
   width="9.5566092mm">
  <defs
     id="defs4" />
  <metadata
     id="metadata7">
    <rdf:RDF>
      <cc:Work
         rdf:about="">
        <dc:format>image/svg+xml</dc:format>
        <dc:type
           rdf:resource="http://purl.org/dc/dcmitype/StillImage" />
        <dc:title></dc:title>
      </cc:Work>
    </rdf:RDF>
  </metadata>
  <g
     transform="translate(-698.39273,-490.11754)"
     id="layer1">
    <path
       d="m 705.44673,517.34884 a 4.938318,4.938318 0 0 1 -4.938,-4.9384 4.938318,4.938318 0 0 1 4.938,-4.9383 4.938318,4.938318 0 0 1 4.938,4.9383 4.938318,4.938318 0 0 1 -4.938,4.9384 m 0,-11.9931 a 7.0547399,7.0547399 0 0 0 -7.054,7.0547 7.0547399,7.0547399 0 0 0 7.054,7.0548 7.0547399,7.0547399 0 0 0 7.055,-7.0548 7.0547399,7.0547399 0 0 0 -7.055,-7.0547 m 13.827,-2.8219 5.927,0 0,-2.5397 -4.516,0 -2.737,-4.6137 c -0.409,-0.7056 -1.214,-1.1711 -2.06,-1.1711 -0.663,0 -1.27,0.268 -1.693,0.7054 l -5.22,5.2064 c -0.438,0.4374 -0.706,1.0018 -0.706,1.7073 0,0.8889 0.465,1.6366 1.199,2.0741 l 4.727,2.8642 0,7.0548 2.539,0 0,-9.1712 -3.174,-2.3281 3.273,-3.3157 m 8.368,18.3423 a 4.938318,4.938318 0 0 1 -4.939,-4.9384 4.938318,4.938318 0 0 1 4.939,-4.9383 4.938318,4.938318 0 0 1 4.938,4.9383 4.938318,4.938318 0 0 1 -4.938,4.9384 m 0,-11.9931 a 7.0547399,7.0547399 0 0 0 -7.056,7.0547 7.0547399,7.0547399 0 0 0 7.056,7.0548 7.0547399,7.0547399 0 0 0 7.054,-7.0548 7.0547399,7.0547399 0 0 0 -7.054,-7.0547 m -4.233,-10.1588 c 1.411,0 2.539,-1.1287 2.539,-2.5397 0,-1.411 -1.128,-2.5397 -2.539,-2.5397 -1.412,0 -2.54,1.1287 -2.54,2.5397 0,1.411 1.128,2.5397 2.54,2.5397 z"
       id="path15152"
       style="fill:#ffffff" />
  </g>
</svg>
